#Comment line ignore any data following # character 
#Hierarchical Translation and Rotation (.htr) file 
[Header]	
#Header keywords are followed by a single value 
FileType HTR		#Single word string
DataType HTRS		#Translation followed by rotation and scale data
FileVersion 1		#integer
NumSegments 64		#integer
NumFrames 3		#integer
DataFrameRate 30		#integer, data frame rate in this file
EulerRotationOrder ZYX
CalibrationUnits mm
RotationUnits Degrees
GlobalAxisofGravity Y
BoneLengthAxis Y
ScaleFactor 1.00
[SegmentNames&Hierarchy]
#CHILD	PARENT
Pinger_Root GLOBAL
Pelvis Pinger_Root
L_Hip Pelvis
R_Hip Pelvis
Rear_Leg01 Pelvis
Spine1 Pelvis
L_Leg01 L_Hip
L_Leg02 L_Leg01
L_Leg03 L_Leg02
L_Foot L_Leg03
L_Toe1_01 L_Foot
L_Toe2_01 L_Foot
L_Toe3_01 L_Foot
planeAlignerLeft L_Foot
L_Toe1_02 L_Toe1_01
L_Toe1_03 L_Toe1_02
L_Toe2_02 L_Toe2_01
L_Toe2_03 L_Toe2_02
L_Toe3_02 L_Toe3_01
L_Toe3_03 L_Toe3_02
planeLockWeightLeft planeAlignerLeft
R_Leg01 R_Hip
R_Leg02 R_Leg01
R_Leg03 R_Leg02
R_Foot R_Leg03
planeAlignerRight R_Foot
R_Toe1_01 R_Foot
R_Toe2_01 R_Foot
R_Toe3_01 R_Foot
planeLockWeightRight planeAlignerRight
R_Toe1_02 R_Toe1_01
R_Toe1_03 R_Toe1_02
R_Toe2_02 R_Toe2_01
R_Toe2_03 R_Toe2_02
R_Toe3_02 R_Toe3_01
R_Toe3_03 R_Toe3_02
Rear_Leg02 Rear_Leg01
Rear_Leg03 Rear_Leg02
Rear_Leg04 Rear_Leg03
Rear_Foot Rear_Leg04
planeAlignerCenter Rear_Foot
Rear_Toe1_01 Rear_Foot
Rear_Toe2_01 Rear_Foot
Rear_Toe3_01 Rear_Foot
planeLockWeightCenter planeAlignerCenter
Rear_Toe1_02 Rear_Toe1_01
Rear_Toe1_03 Rear_Toe1_02
Rear_Toe2_02 Rear_Toe2_01
Rear_Toe2_03 Rear_Toe2_02
Rear_Toe3_02 Rear_Toe3_01
Rear_Toe3_03 Rear_Toe3_02
Back_Bone Spine1
Head Spine1
Motor_Bone Back_Bone
Ping_Mechanism Back_Bone
BN_LookIK Head
bottomMouth Head
L_Mouth01 Head
L_mouthFront Head
mouthGun Head
R_Mouth01 Head
R_mouthFront Head
TopMouth Head
weapon_bone Head
[BasePosition]
#SegmentName Tx, Ty, Tz, Rx, Ry, Rz, BoneLength
Pinger_Root 0.000000 0.000000 0.000000 -90.000000 0.000000 0.000000 10.000000 
Pelvis 0.000000 0.000000 0.000000 0.000000 0.000000 0.000000 10.000000 
L_Hip 0.000000 0.000000 0.000000 0.000000 0.000000 0.000000 10.000000 
R_Hip 0.000000 0.000000 0.000000 0.000000 0.000000 0.000000 10.000000 
Rear_Leg01 0.000000 0.000000 0.000000 0.000000 0.000000 0.000000 10.000000 
Spine1 0.000000 0.000000 0.000000 0.000000 0.000000 0.000000 10.000000 
L_Leg01 0.000000 0.000000 0.000000 0.000000 0.000000 0.000000 10.000000 
L_Leg02 0.000000 0.000000 0.000000 0.000000 0.000000 0.000000 10.000000 
L_Leg03 0.000000 0.000000 0.000000 0.000000 0.000000 0.000000 10.000000 
L_Foot 0.000000 0.000000 0.000000 0.000000 0.000000 0.000000 10.000000 
L_Toe1_01 0.000000 0.000000 0.000000 0.000000 0.000000 0.000000 10.000000 
L_Toe2_01 0.000000 0.000000 0.000000 0.000000 0.000000 0.000000 10.000000 
L_Toe3_01 0.000000 0.000000 0.000000 0.000000 0.000000 0.000000 10.000000 
planeAlignerLeft 0.000000 0.000000 0.000000 0.000000 0.000000 0.000000 10.000000 
L_Toe1_02 0.000000 0.000000 0.000000 0.000000 0.000000 0.000000 10.000000 
L_Toe1_03 0.000000 0.000000 0.000000 0.000000 0.000000 0.000000 10.000000 
L_Toe2_02 0.000000 0.000000 0.000000 0.000000 0.000000 0.000000 10.000000 
L_Toe2_03 0.000000 0.000000 0.000000 0.000000 0.000000 0.000000 10.000000 
L_Toe3_02 0.000000 0.000000 0.000000 0.000000 0.000000 0.000000 10.000000 
L_Toe3_03 0.000000 0.000000 0.000000 0.000000 0.000000 0.000000 10.000000 
planeLockWeightLeft 0.000000 0.000000 0.000000 0.000000 0.000000 0.000000 10.000000 
R_Leg01 0.000000 0.000000 0.000000 0.000000 0.000000 0.000000 10.000000 
R_Leg02 0.000000 0.000000 0.000000 0.000000 0.000000 0.000000 10.000000 
R_Leg03 0.000000 0.000000 0.000000 0.000000 0.000000 0.000000 10.000000 
R_Foot 0.000000 0.000000 0.000000 0.000000 0.000000 0.000000 10.000000 
planeAlignerRight 0.000000 0.000000 0.000000 0.000000 0.000000 0.000000 10.000000 
R_Toe1_01 0.000000 0.000000 0.000000 0.000000 0.000000 0.000000 10.000000 
R_Toe2_01 0.000000 0.000000 0.000000 0.000000 0.000000 0.000000 10.000000 
R_Toe3_01 0.000000 0.000000 0.000000 0.000000 0.000000 0.000000 10.000000 
planeLockWeightRight 0.000000 0.000000 0.000000 0.000000 0.000000 0.000000 10.000000 
R_Toe1_02 0.000000 0.000000 0.000000 0.000000 0.000000 0.000000 10.000000 
R_Toe1_03 0.000000 0.000000 0.000000 0.000000 0.000000 0.000000 10.000000 
R_Toe2_02 0.000000 0.000000 0.000000 0.000000 0.000000 0.000000 10.000000 
R_Toe2_03 0.000000 0.000000 0.000000 0.000000 0.000000 0.000000 10.000000 
R_Toe3_02 0.000000 0.000000 0.000000 0.000000 0.000000 0.000000 10.000000 
R_Toe3_03 0.000000 0.000000 0.000000 0.000000 0.000000 0.000000 10.000000 
Rear_Leg02 0.000000 0.000000 0.000000 0.000000 0.000000 0.000000 10.000000 
Rear_Leg03 0.000000 0.000000 0.000000 0.000000 0.000000 0.000000 10.000000 
Rear_Leg04 0.000000 0.000000 0.000000 0.000000 0.000000 0.000000 10.000000 
Rear_Foot 0.000000 0.000000 0.000000 0.000000 0.000000 0.000000 10.000000 
planeAlignerCenter 0.000000 0.000000 0.000000 0.000000 0.000000 0.000000 10.000000 
Rear_Toe1_01 0.000000 0.000000 0.000000 0.000000 0.000000 0.000000 10.000000 
Rear_Toe2_01 0.000000 0.000000 0.000000 0.000000 0.000000 0.000000 10.000000 
Rear_Toe3_01 0.000000 0.000000 0.000000 0.000000 0.000000 0.000000 10.000000 
planeLockWeightCenter 0.000000 0.000000 0.000000 0.000000 0.000000 0.000000 10.000000 
Rear_Toe1_02 0.000000 0.000000 0.000000 0.000000 0.000000 0.000000 10.000000 
Rear_Toe1_03 0.000000 0.000000 0.000000 0.000000 0.000000 0.000000 10.000000 
Rear_Toe2_02 0.000000 0.000000 0.000000 0.000000 0.000000 0.000000 10.000000 
Rear_Toe2_03 0.000000 0.000000 0.000000 0.000000 0.000000 0.000000 10.000000 
Rear_Toe3_02 0.000000 0.000000 0.000000 0.000000 0.000000 0.000000 10.000000 
Rear_Toe3_03 0.000000 0.000000 0.000000 0.000000 0.000000 0.000000 10.000000 
Back_Bone 0.000000 0.000000 0.000000 0.000000 0.000000 0.000000 10.000000 
Head 0.000000 0.000000 0.000000 0.000000 0.000000 0.000000 10.000000 
Motor_Bone 0.000000 0.000000 0.000000 0.000000 0.000000 0.000000 10.000000 
Ping_Mechanism 0.000000 0.000000 0.000000 0.000000 0.000000 0.000000 10.000000 
BN_LookIK 0.000000 0.000000 0.000000 0.000000 0.000000 0.000000 10.000000 
bottomMouth 0.000000 0.000000 0.000000 0.000000 0.000000 0.000000 10.000000 
L_Mouth01 0.000000 0.000000 0.000000 0.000000 0.000000 0.000000 10.000000 
L_mouthFront 0.000000 0.000000 0.000000 0.000000 0.000000 0.000000 10.000000 
mouthGun 0.000000 0.000000 0.000000 0.000000 0.000000 0.000000 10.000000 
R_Mouth01 0.000000 0.000000 0.000000 0.000000 0.000000 0.000000 10.000000 
R_mouthFront 0.000000 0.000000 0.000000 0.000000 0.000000 0.000000 10.000000 
TopMouth 0.000000 0.000000 0.000000 0.000000 0.000000 0.000000 10.000000 
weapon_bone 0.000000 0.000000 0.000000 0.000000 0.000000 0.000000 10.000000 
#Beginning of Data. Separated by tabs
#Fr	Tx	Ty	Tz	Rx	Ry	Rz	SF
[Pinger_Root]
87 0.000000 0.000000 0.000000 -0.000075 -0.000000 -0.000020 0.000000
88 0.000000 0.000000 0.000000 -0.000075 -0.000000 -0.000020 0.000000
89 0.000000 0.000000 0.000000 -0.000075 -0.000000 -0.000020 0.000000
[Pelvis]
87 21.539194 625.082031 3221.071045 -98.742424 -80.215622 91.160133 3281.232910
88 24.688385 730.794373 3345.684570 -98.817802 -80.128189 91.236778 3424.656982
89 27.688011 826.728210 3467.036865 -98.891792 -80.040627 91.312019 3564.350098
[L_Hip]
87 5.766392 125.831482 872.656799 -128.327652 -68.059044 36.353764 881.701050
88 5.766392 125.831482 872.656799 -135.580322 -68.608406 43.904110 881.701050
89 5.766392 125.831482 872.656799 -143.747971 -68.797394 52.514210 881.701050
[R_Hip]
87 5.765438 125.836372 -872.654907 -105.589005 68.066940 -23.757545 881.699829
88 5.765438 125.836372 -872.654907 -101.079720 71.514297 -19.815657 881.699829
89 5.765438 125.836372 -872.654907 -94.155273 75.026367 -13.355770 881.699829
[Rear_Leg01]
87 -192.298416 -925.602966 -0.001907 -178.735947 3.582766 -100.563484 945.367432
88 -192.298416 -925.602966 -0.001907 178.748245 5.611292 -99.886650 945.367432
89 -192.298416 -925.602966 -0.001907 176.233337 6.987796 -106.682159 945.367432
[Spine1]
87 290.604584 5.007505 0.000477 7.773033 -2.482480 32.063492 290.647736
88 290.604584 5.007505 0.000477 7.728283 -2.265373 30.788334 290.647736
89 290.604584 5.007505 0.000477 7.678717 -2.049309 29.513172 290.647736
[L_Leg01]
87 761.932007 -0.002384 -0.069261 63.251247 -38.556820 -60.076904 761.932068
88 761.932007 -0.002384 -0.069261 59.604092 -38.186996 -54.623569 761.932068
89 761.932007 -0.002384 -0.069261 56.483349 -37.131409 -50.451859 761.932068
[L_Leg02]
87 1441.140503 -0.000954 -0.000715 8.797831 3.173132 -128.172775 1441.140503
88 1441.140503 -0.000954 -0.000715 11.125831 3.482022 -132.099655 1441.140503
89 1441.140503 -0.000954 -0.000715 11.894401 3.218159 -134.389572 1441.140503
[L_Leg03]
87 1686.963989 -0.000715 -0.000954 -0.117767 0.072414 141.560684 1686.963989
88 1686.963989 -0.000715 -0.000954 -0.109440 0.066062 139.666534 1686.963989
89 1686.963989 -0.000715 -0.000954 -0.100907 0.059989 137.772369 1686.963989
[L_Foot]
87 3041.570068 -30.715107 11.297464 -3.547740 32.744270 36.995239 3041.746094
88 3041.570068 -30.715107 11.297464 -0.928000 31.532299 42.711399 3041.746094
89 3041.570068 -30.715107 11.297464 0.701802 29.985590 46.903133 3041.746094
[L_Toe1_01]
87 -188.216690 -224.732346 -21.137953 92.395935 -6.459650 -174.233948 293.899567
88 -188.216690 -224.732346 -21.137953 92.584412 -6.439522 -174.441620 293.899567
89 -188.216690 -224.732346 -21.137953 92.781097 -6.443449 -174.464828 293.899567
[L_Toe2_01]
87 200.746536 -219.926590 148.838394 -89.456734 -25.948269 -50.837616 332.896027
88 200.746536 -219.926590 148.838394 -89.715195 -25.955736 -50.627613 332.896027
89 200.746536 -219.926590 148.838394 -89.973686 -25.962358 -50.417568 332.896027
[L_Toe3_01]
87 188.832520 -219.859131 -191.078659 -101.703964 16.827856 -65.330734 347.140900
88 188.832520 -219.859131 -191.078659 -101.378159 16.666918 -65.174110 347.140900
89 188.832520 -219.859131 -191.078659 -101.053085 16.505131 -65.018562 347.140900
[planeAlignerLeft]
87 34.493992 -561.924500 78.609818 170.954285 -77.775017 88.206772 568.443909
88 35.373806 -559.691833 79.563026 170.755585 -77.618195 88.417809 566.424316
89 35.987221 -559.603149 81.470573 170.561996 -77.461227 88.623703 566.646484
[L_Toe1_02]
87 413.761139 0.000477 0.000000 0.001384 -25.940794 0.001384 413.761139
88 413.761139 0.000477 0.000000 0.001384 -25.942205 0.001384 413.761139
89 413.761139 0.000477 0.000000 0.001384 -25.943626 0.001384 413.761139
[L_Toe1_03]
87 464.317322 0.000358 -0.000089 0.003946 55.390644 0.003946 464.317322
88 464.317322 0.000358 -0.000089 0.003973 55.638420 0.003973 464.317322
89 464.317322 0.000358 -0.000089 0.004001 55.886181 0.004001 464.317322
[L_Toe2_02]
87 342.235809 -0.000477 0.000238 0.001186 -73.651237 0.001186 342.235809
88 342.235809 -0.000477 0.000238 0.001186 -73.694450 0.001186 342.235809
89 342.235809 -0.000477 0.000238 0.001186 -73.737701 0.001186 342.235809
[L_Toe2_03]
87 420.210846 -0.000715 0.000000 -0.059965 88.868408 -0.056469 420.210846
88 420.210846 -0.000715 0.000000 -0.068659 89.015434 -0.065163 420.210846
89 420.210846 -0.000715 0.000000 -0.063648 88.936142 -0.060151 420.210846
[L_Toe3_02]
87 329.270111 0.000954 0.000000 0.001177 -81.317421 0.001177 329.270111
88 329.270111 0.000954 0.000000 0.001177 -81.333084 0.001177 329.270111
89 329.270111 0.000954 0.000000 0.001177 -81.348717 0.001177 329.270111
[L_Toe3_03]
87 439.137451 -0.001907 0.000954 -179.997391 74.921303 -179.993866 439.137451
88 439.137451 -0.001907 0.000954 -179.997421 74.759125 -179.993896 439.137451
89 439.137451 -0.001907 0.000954 -179.997406 74.840080 -179.993881 439.137451
[planeLockWeightLeft]
87 999.998901 0.098153 0.075979 -0.011826 -0.004376 0.005620 999.998962
88 999.998901 0.098155 0.075978 -0.011826 -0.004376 0.005620 999.998962
89 999.998901 0.098157 0.075978 -0.011826 -0.004376 0.005620 999.998962
[R_Leg01]
87 761.455627 -0.001907 -0.000358 87.704155 -22.105137 83.116951 761.455688
88 761.455627 -0.001907 -0.000358 88.762894 -21.382338 80.182617 761.455688
89 761.455627 -0.001907 -0.000358 90.348221 -19.961279 77.076431 761.455688
[R_Leg02]
87 1441.140625 0.000000 -0.000238 -14.929986 -5.099605 -93.930901 1441.140625
88 1441.140625 0.000000 -0.000238 -14.723918 -5.065194 -98.860374 1441.140625
89 1441.140625 0.000000 -0.000238 -14.405767 -4.860824 -102.197044 1441.140625
[R_Leg03]
87 1686.963989 0.000954 0.001431 0.115762 -0.071308 141.455856 1686.963989
88 1686.963989 0.000954 0.001431 0.115729 -0.071361 141.508270 1686.963989
89 1686.963989 0.000954 0.001431 0.114321 -0.070332 141.236725 1686.963989
[R_Foot]
87 3041.560059 -30.531288 -11.204481 -0.759243 -33.266590 29.683384 3041.734131
88 3041.560059 -30.531288 -11.204481 -2.088657 -33.116062 34.966293 3041.734131
89 3041.560059 -30.531288 -11.204481 -3.211095 -32.591175 39.241829 3041.734131
[planeAlignerRight]
87 -129.782150 -551.241272 -287.761658 -38.193752 -73.083931 -62.984768 635.229980
88 -127.992630 -547.922485 -288.829224 -37.997139 -72.891151 -63.153828 632.474121
89 -126.792656 -547.006348 -291.036011 -37.804573 -72.698235 -63.318882 632.451050
[R_Toe1_01]
87 -188.383347 -224.864899 21.052242 78.747261 -1.027496 -174.882980 294.101532
88 -188.383347 -224.864899 21.052242 78.578217 -1.078879 -175.137665 294.101532
89 -188.383347 -224.864899 21.052242 78.334732 -1.079051 -175.169495 294.101532
[R_Toe2_01]
87 200.637817 -220.002121 -148.787384 -93.785500 31.849056 -58.132431 332.857574
88 200.637817 -220.002121 -148.787384 -93.291367 31.974056 -57.853786 332.857574
89 200.637817 -220.002121 -148.787384 -92.795868 32.096992 -57.573502 332.857574
[R_Toe3_01]
87 188.606735 -220.092957 191.126343 -72.277161 -11.014471 -71.507324 347.192566
88 188.606735 -220.092957 191.126343 -72.382378 -10.958600 -71.382179 347.192566
89 188.606735 -220.092957 191.126343 -72.476654 -10.731608 -71.432251 347.192566
[planeLockWeightRight]
87 999.999329 0.000000 0.075999 -0.011823 -0.004379 -0.000027 999.999329
88 999.999329 0.000000 0.075999 -0.011823 -0.004379 -0.000027 999.999329
89 999.999329 0.000000 0.075999 -0.011823 -0.004379 -0.000027 999.999329
[R_Toe1_02]
87 413.762085 0.000477 -0.000119 0.001395 -24.527874 0.001395 413.762085
88 413.762085 0.000477 -0.000119 0.001395 -24.511847 0.001395 413.762085
89 413.762085 0.000477 -0.000119 0.001395 -24.495821 0.001395 413.762085
[R_Toe1_03]
87 464.317810 0.000000 0.001088 0.006875 70.342484 0.006875 464.317810
88 464.317810 0.000000 0.001088 0.007036 70.796249 0.007036 464.317810
89 464.317810 0.000000 0.001088 0.007122 71.030212 0.007122 464.317810
[R_Toe2_02]
87 342.234741 -0.000954 0.000238 0.001192 -69.585312 0.001192 342.234741
88 342.234741 -0.000954 0.000238 0.001193 -69.572311 0.001193 342.234741
89 342.234741 -0.000954 0.000238 0.001193 -69.559204 0.001193 342.234741
[R_Toe2_03]
87 420.210846 0.000715 -0.000268 0.011887 78.667580 0.011887 420.210846
88 420.210846 0.000715 -0.000268 0.011956 78.733589 0.011956 420.210846
89 420.210846 0.000715 -0.000268 0.011718 78.503754 0.011718 420.210846
[R_Toe3_02]
87 329.270355 -0.000477 -0.000954 0.001182 -76.707550 0.001182 329.270355
88 329.270355 -0.000477 -0.000954 0.001182 -76.673882 0.001182 329.270355
89 329.270355 -0.000477 -0.000954 0.001182 -76.640198 0.001182 329.270355
[R_Toe3_03]
87 439.137939 0.000238 0.001431 -0.067275 88.994781 -0.063778 439.137939
88 439.137939 0.000238 0.001431 -0.067730 89.001228 -0.064233 439.137939
89 439.137939 0.000238 0.001431 -0.052720 88.707596 -0.049223 439.137939
[Rear_Leg02]
87 1162.777710 -0.029802 0.005960 4.434663 -3.645797 -77.242928 1162.777710
88 1162.777710 -0.029802 0.005960 4.801254 -2.956981 -81.790703 1162.777710
89 1162.777710 -0.029802 0.005960 4.905126 -2.680005 -84.651108 1162.777710
[Rear_Leg03]
87 607.192505 -0.013351 -0.073195 0.008465 -0.003682 67.743202 607.192505
88 607.192505 -0.013351 -0.073195 0.010376 -0.005338 70.802261 607.192505
89 607.192505 -0.013351 -0.073195 0.010307 -0.005470 72.271301 607.192505
[Rear_Leg04]
87 995.874512 -0.020504 -0.011921 -0.039864 -0.019490 65.252762 995.874573
88 995.874512 -0.020504 -0.011921 -0.040985 -0.017007 72.289490 995.874573
89 995.874512 -0.020504 -0.011921 -0.041501 -0.015706 75.902367 995.874573
[Rear_Foot]
87 3096.176270 -0.067472 -0.041425 -72.620689 86.676689 128.605377 3096.176270
88 3096.176270 -0.067472 -0.041425 -111.381836 86.443451 85.001923 3096.176270
89 3096.176270 -0.067472 -0.041425 -121.926407 85.732033 65.468864 3096.176270
[planeAlignerCenter]
87 -2.587788 -399.679199 -1188.976440 12.240772 -0.001473 179.998184 1254.358398
88 -1.752056 -454.495575 -1234.890991 12.240772 -0.001473 179.998184 1315.874268
89 -0.355893 -234.864319 -964.796997 12.240772 -0.001473 179.998184 992.972595
[Rear_Toe1_01]
87 0.653352 83.966492 -371.173737 3.630080 80.621094 93.539604 380.553192
88 0.653352 83.966492 -371.173737 132.563766 89.298904 -137.562912 380.553192
89 0.653352 83.966492 -371.173737 0.764440 53.121113 90.773064 380.553192
[Rear_Toe2_01]
87 178.200760 -294.826019 -362.060547 -6.103428 67.350380 -70.482422 499.765686
88 178.200760 -294.826019 -362.060547 -7.477474 71.159012 -72.547043 499.765686
89 178.200760 -294.826019 -362.060547 -4.275320 52.555771 -65.572861 499.765686
[Rear_Toe3_01]
87 -153.359680 -308.780914 -362.060852 6.256493 65.697952 -105.066582 499.952881
88 -153.359680 -308.780914 -362.060852 8.949972 69.410942 -101.702576 499.952881
89 -153.359680 -308.780914 -362.060852 2.650587 51.563553 -111.094986 499.952881
[planeLockWeightCenter]
87 1000.000122 0.000114 0.076250 -0.011814 -0.004373 -0.000015 1000.000122
88 1000.000122 0.000111 0.076250 -0.011814 -0.004373 -0.000015 1000.000122
89 1000.000122 0.000109 0.076250 -0.011814 -0.004373 -0.000015 1000.000122
[Rear_Toe1_02]
87 379.707825 0.194073 0.000477 -0.002649 -32.520752 -0.002649 379.707855
88 379.707825 0.194073 0.000477 -0.002644 -32.958866 -0.002644 379.707855
89 379.707825 0.194073 0.000477 -0.006684 -31.070646 -0.006684 379.707855
[Rear_Toe1_03]
87 500.129700 0.165701 0.000119 -179.969543 87.705269 -179.973038 500.129761
88 500.129700 0.165701 0.000119 -0.029177 87.870171 -0.032675 500.129761
89 500.129700 0.165701 0.000119 -179.993210 76.891144 -179.996735 500.129761
[Rear_Toe2_02]
87 340.494507 0.000238 -0.000954 0.001197 -67.322319 0.001197 340.494507
88 340.494507 0.000238 -0.000954 0.001203 -64.656967 0.001203 340.494507
89 340.494507 0.000238 -0.000954 0.001177 -80.732674 0.001177 340.494507
[Rear_Toe2_03]
87 433.103577 0.000000 0.000238 0.005650 66.023987 0.005650 433.103546
88 433.103577 0.000000 0.000238 0.004899 62.276722 0.004899 433.103546
89 433.103577 0.000000 0.000238 0.150249 89.105408 0.150249 433.103546
[Rear_Toe3_02]
87 340.494141 -0.000358 -0.000477 0.004488 -65.861359 -0.003875 340.494171
88 340.494141 -0.000358 -0.000477 0.006987 -63.321545 -0.008168 340.494171
89 340.494141 -0.000358 -0.000477 0.001179 -79.614334 0.001178 340.494171
[Rear_Toe3_03]
87 433.103577 0.001431 -0.000238 -0.000749 63.889938 -0.004339 433.103546
88 433.103577 0.001431 -0.000238 -0.000444 60.425079 -0.004060 433.103546
89 433.103577 0.001431 -0.000238 -0.022437 86.816048 -0.018939 433.103546
[Back_Bone]
87 1312.175781 -701.934692 0.000954 1.458277 0.464339 -102.567383 1488.125488
88 1312.175781 -701.934692 0.000954 1.467184 0.458855 -102.079247 1488.125488
89 1312.175781 -701.934692 0.000954 1.475447 0.450831 -101.276451 1488.125488
[Head]
87 1406.159424 809.709290 0.001431 -1.888247 -0.160313 -15.490369 1622.625488
88 1406.159424 809.709290 0.001431 -1.816889 -0.284173 -14.490597 1622.625488
89 1406.159424 809.709290 0.001431 -1.721266 -0.386482 -13.184588 1622.625488
[Motor_Bone]
87 1158.364380 -417.834747 0.000477 -0.150652 0.101572 -104.733734 1231.419434
88 1158.364380 -417.834747 0.000477 -0.162090 0.115004 -108.330505 1231.419434
89 1158.364380 -417.834747 0.000477 -0.174347 0.127691 -111.927330 1231.419434
[Ping_Mechanism]
87 1260.695923 -452.907043 0.670605 0.000103 -0.000053 82.120995 1339.581909
88 1261.307861 -452.601318 0.507313 0.000103 -0.000053 82.120995 1340.054321
89 1261.919678 -452.295502 0.344011 0.000103 -0.000053 82.120995 1340.527100
[BN_LookIK]
87 193.241119 1380.371704 -0.002861 0.000000 89.965736 -31.038179 1393.832153
88 193.241119 1380.371704 -0.002861 0.000000 89.965736 -31.038179 1393.832153
89 193.241119 1380.371704 -0.002861 0.000000 89.965736 -31.038179 1393.832153
[bottomMouth]
87 -435.092926 615.759399 -0.000954 -0.000022 0.000016 73.527184 753.966492
88 -435.092926 615.759399 -0.000954 -0.000022 0.000016 73.527184 753.966492
89 -435.092926 615.759399 -0.000954 -0.000022 0.000016 73.527184 753.966492
[L_Mouth01]
87 554.440979 7.658243 838.222046 150.204178 23.759130 109.605339 1005.027161
88 554.440979 7.658243 838.222046 150.204178 23.759130 109.605339 1005.027161
89 554.440979 7.658243 838.222046 150.204178 23.759130 109.605339 1005.027161
[L_mouthFront]
87 551.629089 934.514771 339.150421 0.000081 2.804060 79.119301 1136.941284
88 551.629089 934.514771 339.150421 0.000081 2.804060 79.119301 1136.941284
89 551.629089 934.514771 339.150421 0.000081 2.804060 79.119301 1136.941284
[mouthGun]
87 55.332661 1627.420898 0.000000 0.000023 0.000009 -11.038128 1628.361328
88 55.332661 1627.420898 0.000000 0.000023 0.000009 -11.038128 1628.361328
89 55.332661 1627.420898 0.000000 0.000023 0.000009 -11.038128 1628.361328
[R_Mouth01]
87 554.442383 7.659197 -838.223938 29.795891 -23.759109 109.605331 1005.029541
88 554.442383 7.659197 -838.223938 29.795891 -23.759109 109.605331 1005.029541
89 554.442383 7.659197 -838.223938 29.795891 -23.759109 109.605331 1005.029541
[R_mouthFront]
87 551.629089 934.514282 -339.151367 0.000029 -2.803930 79.119133 1136.941162
88 551.629089 934.514282 -339.151367 0.000029 -2.803930 79.119133 1136.941162
89 551.629089 934.514282 -339.151367 0.000029 -2.803930 79.119133 1136.941162
[TopMouth]
87 461.269867 -56.106091 -0.008583 -0.000059 -0.000268 92.025169 464.669525
88 461.269867 -56.106091 -0.008583 -0.000059 -0.000268 92.025169 464.669525
89 461.269867 -56.106091 -0.008583 -0.000059 -0.000268 92.025169 464.669525
[weapon_bone]
87 -987.239868 1448.372803 0.001431 0.000000 89.965736 -31.038221 1752.833740
88 -987.239868 1448.372803 0.001431 0.000000 89.965736 -31.038221 1752.833740
89 -987.239868 1448.372803 0.001431 0.000000 89.965736 -31.038221 1752.833740
